<svg xmlns="http://www.w3.org/2000/svg" viewBox="0 0 32 32">
  <rect width="32" height="32" rx="8" fill="#c5a059"/>
  <path d="M16 6c-4.4 0-8 3.1-8 7 0 2.2 1.2 4.2 3 5.5V22a2 2 0 002 2h6a2 2 0 002-2v-3.5c1.8-1.3 3-3.3 3-5.5 0-3.9-3.6-7-8-7z" fill="#0a0a0b"/>
  <circle cx="13" cy="12" r="1.5" fill="#c5a059"/>
  <circle cx="19" cy="12" r="1.5" fill="#c5a059"/>
  <circle cx="16" cy="15" r="1" fill="#c5a059"/>
  <line x1="13" y1="12" x2="16" y2="15" stroke="#c5a059" stroke-width="0.8"/>
  <line x1="19" y1="12" x2="16" y2="15" stroke="#c5a059" stroke-width="0.8"/>
  <line x1="13" y1="12" x2="19" y2="12" stroke="#c5a059" stroke-width="0.8"/>
  <rect x="12" y="23" width="8" height="1.5" rx="0.75" fill="#0a0a0b"/>
  <rect x="13" y="25" width="6" height="1.5" rx="0.75" fill="#0a0a0b"/>
</svg>
